# AST/ASF file generated using VICON BodyLanguage
# -----------------------------------------------
:version 1.10
:name VICON
:units
  mass 1.0
  length 0.45
  angle deg
:documentation
   .ast/.asf automatically generated from VICON data using
   VICON BodyBuilder and BodyLanguage model FoxedUp or BRILLIANT.MOD
:root
   order TX TY TZ RX RY RZ
   axis XYZ
   position 0 0 0  
   orientation 0 0 0 
:bonedata
  begin
     id 1 
     name lhipjoint
     direction 0.63403 -0.759788 0.143974 
     length 2.51904 
     axis 0 0 0  XYZ
  end
  begin
     id 2 
     name lfemur
     direction 0.34202 -0.939693 0  
     length 7.42313  
     axis 0 0 20  XYZ
    dof rx ry rz
    limits (-160.0 20.0)
           (-70.0 70.0)
           (-60.0 70.0)
  end
  begin
     id 3 
     name ltibia
     direction 0.34202 -0.939693 0   
     length 8.10141   
     axis 0 0 20   XYZ
    dof rx
    limits (-10.0 170.0)
  end
  begin
     id 4 
     name lfoot
     direction 0.0927455 -0.254816 0.962532   
     length 2.14078   
     axis -90 7.62852e-016 20   XYZ
    dof rx rz
    limits (-45.0 90.0)
           (-70.0 20.0)
  end
  begin
     id 5 
     name ltoes
     direction 1.53556e-011 -4.21949e-011 1   
     length 1.07182   
     axis -90 7.62852e-016 20   XYZ
    dof rx
    limits (-90.0 20.0)
  end
  begin
     id 6 
     name rhipjoint
     direction -0.659892 -0.738223 0.139888   
     length 2.59263  
     axis 0 0 0  XYZ 
  end
  begin
     id 7 
     name rfemur
     direction -0.34202 -0.939693 0   
     length 7.58575   
     axis 0 0 -20   XYZ
    dof rx ry rz
    limits (-160.0 20.0)
           (-70.0 70.0)
           (-70.0 60.0)
  end
  begin
     id 8 
     name rtibia
     direction -0.34202 -0.939693 0   
     length 8.19358   
     axis 0 0 -20   XYZ
    dof rx
    limits (-10.0 170.0)
 end
 begin
     id 9 
     name rfoot
     direction -0.0856543 -0.235333 0.968133   
     length 2.13415  
     axis -90 -7.62852e-016 -20   XYZ
    dof rx rz
    limits (-45.0 90.0)
           (-20.0 70.0)
  end
  begin
     id 10 
     name rtoes
     direction -1.53551e-011 -4.21811e-011 1   
     length 1.07055   
     axis -90 -7.62852e-016 -20   XYZ
    dof rx
    limits (-90.0 20.0)
  end
  begin
     id 11 
     name lowerback
     direction 0.025219 0.998394 -0.0507326   
     length 1.91844   
     axis 0 0 0   XYZ
    dof rx ry rz
    limits (-20.0 45.0)
           (-30.0 30.0)
           (-30.0 30.0)
  end
  begin
     id 12 
     name upperback
     direction 0.0213103 0.99967 -0.0143101   
     length 1.92246   
     axis 0 0 0   XYZ
    dof rx ry rz
    limits (-20.0 45.0)
           (-30.0 30.0)
           (-30.0 30.0)
  end
  begin
     id 13 
     name thorax
     direction 0.00920974 0.99991 0.00971518   
     length 1.92239   
     axis 0 0 0   XYZ
    dof rx ry rz
    limits (-20.0 45.0)
           (-30.0 30.0)
           (-30.0 30.0)
  end
  begin
     id 14 
     name lowerneck
     direction 0.0598257 0.997249 0.0437612   
     length 3.13679   
     axis 0 0 0   XYZ
    dof rx ry rz
    limits (-20.0 45.0)
           (-30.0 30.0)
           (-30.0 30.0)
  end
  begin
     id 15 
     name upperneck
     direction -0.035342 0.999338 0.00863891   
     length 3.16283   
     axis 0 0 0   XYZ
    dof rx ry rz
    limits (-20.0 45.0)
           (-30.0 30.0)
           (-30.0 30.0)
  end
  begin
     id 16
     name head
     direction 0.37144 0.811566 0.450991  
     length 1.2838  
     axis 0 0 0   XYZ
    dof rx ry rz
    limits (-20.0 45.0)
           (-30.0 30.0)
           (-30.0 30.0)
  end
  begin
     id 17 
     name lclavicle
     direction 0.961094 0.274654 -0.0293862  
     length 3.63466  
     axis 0 0 0   XYZ
    dof ry rz
    limits (-20.0 10.0)
           (0.0 20.0)
  end
  begin
     id 18 
     name lhumerus
     direction 1 -4.48963e-011 1.10303e-027   
     length 5.12842   
     axis 180 -30 -90   XYZ
    dof rx ry rz
    limits (-60.0 90.0)
           (-90.0 90.0)
           (-90.0 90.0)
  end
  begin
     id 19
     name lradius
     direction 1 -4.48968e-011 4.13199e-027   
     length 3.47396   
     axis 180 -30 -90   XYZ
    dof rx
    limits (-10.0 170.0)
  end
  begin
     id 20
     name lwrist
     direction 1 -4.48948e-011 9.12708e-027   
     length 1.73698   
     axis -6.84618e-015 90 90   XYZ
    dof ry
    limits (-180.0 0.0)
 end
  begin
     id 21 
     name lhand
     direction 1 -4.49057e-011 1.82749e-026   
     length 0.728607   
     axis -1.16502e-014 90 90   XYZ
    dof rx rz
    limits (-90.0 90.0)
           (-45.0 45.0)
  end
  begin
     id 22 
     name lfingers
     direction 1 -4.48912e-011 3.64949e-026   
     length 0.587422   
     axis -2.33008e-014 90 90   XYZ
    dof rx
    limits (0.0 90.0)
  end
  begin
     id 23
     name lthumb
     direction 0.707107 -6.34995e-011 0.707107   
     length 0.843424   
     axis -90 45 5.69224e-014   XYZ
    dof rx rz
    limits (-45.0 45.0)
           (-45.0 45.0)
  end
  begin
     id 24 
     name rclavicle
     direction -0.90514 0.421881 -0.0523369   
     length 3.57139  
     axis 0 0 0   XYZ 
    dof ry rz
    limits (-10.0 20.0)
           (-20.0 0.0)
  end
  begin
     id 25 
     name rhumerus
     direction -1 -4.48954e-011 -1.76662e-027  
     length 5.48477   
     axis 180 30 90   XYZ
    dof rx ry rz
    limits (-90.0 60.0)
           (-90.0 90.0)
           (-90.0 90.0)
  end
  begin
     id 26 
     name rradius
     direction -1 -4.48982e-011 1.26841e-027   
     length 3.47856   
     axis 180 30 90   XYZ
    dof rx
    limits (-10.0 170.0)
  end
  begin
     id 27 
     name rwrist
     direction -1 -4.49037e-011 9.13554e-027   
     length 1.73928   
     axis -6.84618e-015 -90 -90   XYZ
    dof ry
    limits (-180.0 0.0)
  end
  begin
     id 28
     name rhand
     direction -1 -4.48871e-011 1.82397e-026   
     length 0.709974   
     axis -1.16502e-014 -90 -90   XYZ
    dof rx rz
    limits (-90.0 90.0)
           (-45.0 45.0)
  end
  begin
     id 29
     name rfingers
     direction -1 -4.48994e-011 3.65258e-026   
     length 0.572399   
     axis -2.33008e-014 -90 -90   XYZ
    dof rx
    limits (0.0 90.0)
  end
  begin
     id 30
     name rthumb
     direction -0.707107 -6.34861e-011 0.707107   
     length 0.821855   
     axis -90 -45 -5.69224e-014   XYZ
    dof rx rz
    limits (-45.0 45.0)
           (-45.0 45.0)
  end
:hierarchy
  begin
    root lhipjoint rhipjoint lowerback
    lhipjoint lfemur
    lfemur ltibia
    ltibia lfoot
    lfoot ltoes
    rhipjoint rfemur
    rfemur rtibia
    rtibia rfoot
    rfoot rtoes
    lowerback upperback
    upperback thorax
    thorax lowerneck lclavicle rclavicle
    lowerneck upperneck
    upperneck head
    lclavicle lhumerus
    lhumerus lradius
    lradius lwrist
    lwrist lhand lthumb
    lhand lfingers
    rclavicle rhumerus
    rhumerus rradius
    rradius rwrist
    rwrist rhand rthumb
    rhand rfingers
  end

#!OML:ASF F:\VICON\USERDATA\INSTALL\Justin1\Justin1.ASF
:FULLY-SPECIFIED
:DEGREES
2566
root 0.214613 18.2298 -3.74168 2.59819 -2.06191 -2.5903
lowerback 0.361409 -0.984342 1.83901
upperback -2.04904 -1.22536 3.06849
thorax -2.27762 -0.616129 2.14996
lowerneck -14.8532 -1.21682 -3.31607
upperneck 27.7467 0.255332 -3.7365
head 11.5235 -0.719464 -0.777147
rclavicle -1.11816e-016 2.38542e-015
rhumerus 25.1939 58.0231 -52.7643
rradius 84.3905
rwrist 26.4393
rhand -32.5199 42.946
rfingers 7.12502
rthumb -5.75075 13.044
lclavicle -1.11816e-016 2.38542e-015
lhumerus 20.8693 -34.8491 79.226
lradius 34.4391
lwrist -38.945
lhand -18.1186 22.5681
lfingers 7.12502
lthumb 8.15589 52.3907
rfemur -14.4629 8.19373 26.1143
rtibia 33.5982
rfoot -17.1633 -15.8503
rtoes 25.6632
lfemur -13.0257 -8.68763 -19.6394
ltibia 28.712
lfoot -15.7575 9.48763
ltoes 7.98722
2567
root 0.21305 18.2308 -3.74035 2.63459 -2.10116 -2.58365
lowerback 0.271768 -0.934259 1.83769
upperback -2.11153 -1.15986 3.06118
thorax -2.29317 -0.583449 2.14087
lowerneck -14.8394 -1.32046 -3.35682
upperneck 27.606 0.127835 -3.79178
head 11.4666 -0.78504 -0.806381
rclavicle -8.4732e-015 -1.82882e-014
rhumerus 27.1697 58.1142 -51.4686
rradius 83.434
rwrist 26.4457
rhand -32.3262 43.5324
rfingers 7.12502
rthumb -5.56366 13.6255
lclavicle -8.4732e-015 -1.82882e-014
lhumerus 22.2227 -35.2098 78.6653
lradius 33.7501
lwrist -39.1253
lhand -18.3828 22.366
lfingers 7.12502
lthumb 7.90086 52.1984
rfemur -14.4937 8.2883 26.1008
rtibia 33.5764
rfoot -17.1911 -15.8527
rtoes 25.8959
lfemur -13.0341 -8.73286 -19.6419
ltibia 28.6654
lfoot -15.7626 9.5766
ltoes 8.23312
2568
root 0.21073 18.2318 -3.7428 2.66011 -2.05727 -2.58167
lowerback 0.216919 -0.914517 1.84172
upperback -2.15912 -1.13429 3.03536
thorax -2.31247 -0.571007 2.1111
lowerneck -14.8331 -1.39422 -3.2655
upperneck 27.428 0.0307905 -3.93325
head 11.3962 -0.833135 -0.884764
rclavicle -2.02263e-014 3.49861e-014
rhumerus 29.2317 58.2199 -50.0661
rradius 82.448
rwrist 26.538
rhand -32.1714 43.9433
rfingers 7.12502
rthumb -5.41418 14.0324
lclavicle -2.02263e-014 3.49861e-014
lhumerus 23.5291 -35.4518 78.1314
lradius 33.096
lwrist -39.3375
lhand -18.24 22.3832
lfingers 7.12502
lthumb 8.03868 52.2103
rfemur -14.5525 8.31073 26.1069
rtibia 33.6244
rfoot -17.2779 -15.8831
rtoes 25.938
lfemur -13.0951 -8.78427 -19.6364
ltibia 28.7212
lfoot -15.7929 9.64175
ltoes 8.30608
2569
root 0.206979 18.2334 -3.75263 2.70634 -1.86668 -2.57487
lowerback 0.237754 -0.948874 1.83693
upperback -2.21255 -1.17834 2.98901
thorax -2.37902 -0.593423 2.06829
lowerneck -14.8816 -1.43733 -3.20681
upperneck 27.2271 -0.0721452 -3.86524
head 11.327 -0.860993 -0.881299
rclavicle -6.78353e-015 2.14687e-014
rhumerus 31.333 58.3484 -48.6017
rradius 81.4165
rwrist 26.6974
rhand -32.324 43.8296
rfingers 7.12502
rthumb -5.56153 13.9226
lclavicle -6.78353e-015 2.14687e-014
lhumerus 24.7779 -35.6175 77.6126
lradius 32.5033
lwrist -39.579
lhand -17.8686 22.5816
lfingers 7.12502
lthumb 8.39718 52.3946
rfemur -14.6713 8.21191 26.1134
rtibia 33.7044
rfoot -17.4254 -15.9094
rtoes 26.2428
lfemur -13.2231 -8.75099 -19.607
ltibia 28.7818
lfoot -15.8098 9.50067
ltoes 8.00214
2570
root 0.200571 18.2204 -3.76953 2.76618 -1.62515 -2.58872
lowerback 0.361393 -0.986162 1.8434
upperback -2.31277 -1.22073 2.93676
thorax -2.55222 -0.615418 2.01619
lowerneck -14.9523 -1.53589 -3.07479
upperneck 27.095 -0.247325 -3.87901
head 11.2879 -0.926235 -0.93182
rclavicle -9.86469e-015 2.62396e-014
rhumerus 33.1923 58.4626 -47.3375
rradius 80.4269
rwrist 26.7568
rhand -32.4442 43.6224
rfingers 7.12502
rthumb -5.67758 13.7185
lclavicle -9.86469e-015 2.62396e-014
lhumerus 25.886 -35.8158 77.1565
lradius 31.9804
lwrist -39.8446
lhand -17.6284 22.7886
lfingers 7.12502
lthumb 8.62898 52.5923
rfemur -14.8532 8.13647 26.1552
rtibia 33.8152
rfoot -17.4039 -16.0725
rtoes 26.168
lfemur -13.4714 -8.79354 -19.5188
ltibia 28.888
lfoot -15.7866 9.26105
ltoes 8.09404
2571
root 0.196911 18.2194 -3.77828 2.80568 -1.51576 -2.49726
lowerback 0.477019 -0.986443 1.78531
upperback -2.46447 -1.2144 2.85538
thorax -2.77435 -0.612117 1.96985
lowerneck -15.066 -1.63031 -3.08816
upperneck 27.1844 -0.405567 -3.75591
head 11.3434 -0.986699 -0.909438
rclavicle 1.10574e-014 7.95139e-015
rhumerus 34.8208 58.7265 -46.1985
rradius 79.4422
rwrist 26.627
rhand -32.6167 43.6191
rfingers 7.12502
rthumb -5.84416 13.7197
lclavicle 1.10574e-014 7.95139e-015
lhumerus 26.8082 -36.0408 76.8539
lradius 31.419
lwrist -39.8624
lhand -17.3573 22.8839
lfingers 7.12502
lthumb 8.89057 52.6766
rfemur -14.9792 8.08512 26.0623
rtibia 33.9058
rfoot -17.3691 -16.1373
rtoes 26.157
lfemur -13.6324 -8.84411 -19.5838
ltibia 28.9696
lfoot -15.7858 9.19197
ltoes 8.08546
2572
root 0.196339 18.2189 -3.78007 2.8268 -1.49121 -2.57293
lowerback 0.508481 -0.964552 1.90213
upperback -2.56652 -1.17852 2.8369
thorax -2.90107 -0.59727 1.88684
lowerneck -15.1757 -1.70205 -3.09511
upperneck 27.2728 -0.518716 -3.68409
head 11.3984 -1.03227 -0.90068
rclavicle 2.88735e-014 -2.70347e-014
rhumerus 36.4745 58.9844 -45.0128
rradius 78.4821
rwrist 26.355
rhand -32.6935 44.1812
rfingers 7.12502
rthumb -5.91829 14.2839
lclavicle 2.88735e-014 -2.70347e-014
lhumerus 27.7415 -36.3171 76.493
lradius 30.9378
lwrist -39.534
lhand -17.0627 22.6315
lfingers 7.12502
lthumb 9.17486 52.4119
rfemur -15.0322 8.09233 26.1452
rtibia 33.9639
rfoot -17.475 -16.1306
rtoes 26.3847
lfemur -13.6986 -8.89938 -19.4942
ltibia 29.0492
lfoot -15.8372 9.23662
ltoes 7.99464
2573
root 0.192658 18.2179 -3.77957 2.82076 -1.50691 -2.6056
lowerback 0.491166 -0.941129 1.87013
upperback -2.60681 -1.14641 2.86932
thorax -2.93225 -0.580131 1.9376
lowerneck -15.2841 -1.73916 -3.06018
upperneck 27.2388 -0.559051 -3.7463
head 11.4066 -1.05495 -0.935969
rclavicle -1.70458e-014 2.94201e-014
rhumerus 38.0767 59.1929 -43.8167
rradius 77.5678
rwrist 25.7803
rhand -32.5916 45.273
rfingers 7.12502
rthumb -5.81995 15.3729
lclavicle -1.70458e-014 2.94201e-014
lhumerus 28.6628 -36.5298 76.1281
lradius 30.5078
lwrist -39.4801
lhand -16.7443 22.0603
lfingers 7.12502
lthumb 9.4821 51.8269
rfemur -14.9945 8.16016 26.1957
rtibia 33.8904
rfoot -17.4241 -16.1714
rtoes 26.2887
lfemur -13.6666 -8.9249 -19.4457
ltibia 28.9825
lfoot -15.8326 9.26018
ltoes 8.18669
2574
root 0.188698 18.2183 -3.77642 2.8227 -1.46188 -2.64158
lowerback 0.723057 -1.00889 2.09885
upperback -2.84254 -1.21877 2.70867
thorax -3.31389 -0.625057 1.65566
lowerneck -15.1332 -1.71429 -2.92717
upperneck 27.2041 -0.607008 -3.62313
head 11.3603 -1.04613 -0.917613
rclavicle -8.49804e-015 -5.56597e-015
rhumerus 39.2656 59.717 -43.2625
rradius 76.6606
rwrist 24.9292
rhand -33.3409 45.5569
rfingers 7.12502
rthumb -6.54329 15.678
lclavicle -8.49804e-015 -5.56597e-015
lhumerus 28.9875 -36.514 75.9283
lradius 30.0744
lwrist -39.8011
lhand -16.7534 21.4869
lfingers 7.12502
lthumb 9.47324 51.254
rfemur -14.9263 8.173 26.2591
rtibia 33.783
rfoot -17.3081 -16.2644
rtoes 25.9027
lfemur -13.6318 -8.96926 -19.3948
ltibia 28.9235
lfoot -15.8393 9.27693
ltoes 8.36559
2575
root 0.185865 18.2339 -3.77472 2.83813 -1.4024 -2.63868
lowerback 0.393142 -0.926069 1.82028
upperback -2.69773 -1.1269 2.90764
thorax -2.96957 -0.568749 2.00406
lowerneck -15.0882 -1.92518 -3.36489
upperneck 26.7684 -0.827088 -3.53816
head 11.1905 -1.17083 -0.835228
rclavicle 2.06488e-014 -4.77083e-015
rhumerus 40.9347 59.6609 -41.5942
rradius 75.8424
rwrist 22.8385
rhand -34.598 46.4626
rfingers 7.12502
rthumb -7.75675 16.6249
lclavicle 2.06488e-014 -4.77083e-015
lhumerus 30.0064 -36.5144 76.0012
lradius 29.6429
lwrist -39.527
lhand -17.2645 20.8884
lfingers 7.12502
lthumb 8.98015 50.6773
rfemur -14.8648 8.15117 26.2606
rtibia 33.6603
rfoot -17.2634 -16.2706
rtoes 26.0964
lfemur -13.5811 -8.95466 -19.3853
ltibia 28.8162
lfoot -15.7919 9.21067
ltoes 8.26552
2576
root 0.184302 18.2358 -3.77403 2.8838 -1.37161 -2.63188
lowerback 0.285574 -0.896742 1.82296
upperback -2.72627 -1.09083 2.90204
thorax -2.93928 -0.550855 1.99405
lowerneck -15.2991 -2.01309 -3.39616
upperneck 26.7554 -0.942048 -3.50571
head 11.2278 -1.22328 -0.836811
rclavicle -1.15295e-014 1.35174e-014
rhumerus 41.7623 59.6794 -41.1814
rradius 74.9353
rwrist 20.2765
rhand -36.137 48.107
rfingers 7.12502
rthumb -9.24202 18.3295
lclavicle -1.15295e-014 1.35174e-014
lhumerus 30.5569 -36.5674 75.9301
lradius 29.3005
lwrist -38.6381
lhand -18.4226 20.2307
lfingers 7.12502
lthumb 7.8625 50.0645
rfemur -14.874 8.1448 26.2547
rtibia 33.5843
rfoot -17.2877 -16.2799
rtoes 26.1687
lfemur -13.5743 -8.95419 -19.3776
ltibia 28.7104
lfoot -15.7021 9.17887
ltoes 8.01066
2577
root 0.181904 18.2371 -3.77455 2.92141 -1.3047 -2.58437
lowerback 0.251967 -0.872933 1.75486
upperback -2.79159 -1.0596 2.88993
thorax -2.98736 -0.53377 2.01929
lowerneck -15.435 -2.08752 -3.396
upperneck 26.72 -1.04757 -3.48629
head 11.2411 -1.26883 -0.84588
rclavicle 1.98785e-016 -1.90833e-014
rhumerus 41.8369 59.618 -41.4435
rradius 74.0442
rwrist 18.3157
rhand -37.4575 50.0161
rfingers 7.12502
rthumb -10.516 20.2991
lclavicle 1.98785e-016 -1.90833e-014
lhumerus 30.8533 -36.5205 76.104
lradius 29.0728
lwrist -37.5501
lhand -19.3908 19.7497
lfingers 7.12502
lthumb 6.92791 49.6163
rfemur -14.9007 8.15429 26.2053
rtibia 33.5373
rfoot -17.3473 -16.3305
rtoes 26.2963
lfemur -13.5596 -8.99434 -19.4049
ltibia 28.562
lfoot -15.6316 9.10507
ltoes 8.09356
2578
root 0.179692 18.239 -3.77264 2.93746 -1.15813 -2.50659
lowerback 0.187694 -0.876232 1.65456
upperback -2.82655 -1.06733 2.87541
thorax -2.98534 -0.535295 2.06006
lowerneck -15.3827 -2.18386 -3.35099
upperneck 26.4469 -1.17726 -3.59854
head 11.1257 -1.33159 -0.907117
rclavicle 8.94531e-016 3.97569e-015
rhumerus 41.4639 59.4067 -42.0902
rradius 73.4189
rwrist 17.3806
rhand -38.0376 51.4783
rfingers 7.12502
rthumb -11.0755 21.7905
lclavicle 8.94531e-016 3.97569e-015
lhumerus 31.017 -36.3991 76.3359
lradius 29.0546
lwrist -36.7817
lhand -19.7147 19.4455
lfingers 7.12502
lthumb 6.61525 49.3222
rfemur -14.9181 8.04059 26.1289
rtibia 33.5617
rfoot -17.3864 -16.329
rtoes 26.61
lfemur -13.5428 -9.01239 -19.4748
ltibia 28.4574
lfoot -15.593 8.99494
ltoes 7.87731
2579
root 0.177226 18.2413 -3.76665 2.91324 -0.977966 -2.33025
lowerback 0.107577 -0.893484 1.46349
upperback -2.80591 -1.09844 2.82301
thorax -2.91518 -0.546813 2.11194
lowerneck -15.5052 -2.30638 -3.33022
upperneck 26.1989 -1.3394 -3.66766
head 11.0552 -1.40792 -0.955793
rclavicle -3.2054e-015 2.46493e-014
rhumerus 40.7142 58.9652 -43.1387
rradius 73.0362
rwrist 17.6137
rhand -38.0246 52.1456
rfingers 7.12502
rthumb -11.063 22.4572
lclavicle -3.2054e-015 2.46493e-014
lhumerus 31.3305 -36.3902 76.3124
lradius 29.0861
lwrist -36.303
lhand -19.8478 19.3188
lfingers 7.12502
lthumb 6.48675 49.1995
rfemur -14.8688 7.88361 25.9548
rtibia 33.5974
rfoot -17.425 -16.3424
rtoes 26.4811
lfemur -13.4505 -9.10261 -19.6643
ltibia 28.3454
lfoot -15.5485 8.90579
ltoes 7.77891
